<svg xmlns="http://www.w3.org/2000/svg" width="64" height="64" viewBox="0 0 64 64" role="img" aria-labelledby="title">
  <title id="title">BattleTree</title>
  <rect width="64" height="64" rx="14" fill="#050505"/>
  <path fill="#fff" d="M18 14h18.5c6.8 0 11.1 3.5 11.1 9.2 0 3.5-1.8 6.2-5 7.5 4 1.2 6.4 4.4 6.4 8.8 0 6.4-4.8 10.5-12.2 10.5H18V14Zm8.1 7v7.1h9.5c2.5 0 3.9-1.3 3.9-3.6 0-2.2-1.5-3.5-4-3.5h-9.4Zm0 13.6V43h10.6c2.7 0 4.2-1.5 4.2-4.1 0-2.7-1.6-4.3-4.3-4.3H26.1Z"/>
  <path fill="#fff" d="M48 14v8H36v-8h12Z" opacity=".72"/>
</svg>
