<?xml version="1.0" encoding="UTF-8"?>
<svg id="_圖層_1" data-name="圖層 1" xmlns="http://www.w3.org/2000/svg" viewBox="0 0 1198.05 673.17">
  <path d="M242.14,412.8l-26.6,17.97-37.91,24.82,12.66-3.82c1.9-.57,5.97-.32,8.54-.37l-9.08,5.31-8.89,5.36-4.67,2.38-7.22,3.69c-1.63,2.48-3.2,4.94-5.76,6.31-3.3,1.78-6,1.23-8.52-1.82l-10.88,6.47c-1.91,1.14-2.61,4.29-1.11,6.04,3.7,4.34-4.3,5.91-3.39,11.91,2.39,2.58,6.94,2.12,5.74,7.39l-7.7-6.63-10.71,4.86-3.33,4.23.73-5.14c-3.73-.86-6.29-3.35-6.84-7.89l-8.69,4.45c-.6.31-2.36,2.14-2.18,2.73l.85,2.71-10.61,11.84c-3.55-1.84-8.68-1.81-13.5.19l4.94-6.44-17.53,9.44c-3.32,1.79-5.11,2.74-8.53,4.58l-30.35,16.34-14.04,7.36,17.72-14.66,20.14-16.89c-5.24.35-8.35,4.96-13.62,6.51l7.46-7.57c4.56-1.43,9.98.09,12.78-5.89-4.54,1.5-6.93,2.67-12.27,3.51l14.17-10.16,4.95-4.84,11.31-8.67-4.51.27,11.39-8.81-15.31,7.17c-2.98,1.39-5.46,2.35-9.13,3.01l3.11-2.64-.66-1.09-44.01,21.87-8.85,5.1c-3.7,2.14-7.48,3.86-12.25,5.15l33.5-23.21c1.59-.82,1.18-1.91-1.51-1.6l15.97-9.41-6.38.72,13.97-10.34,7.06-5.48c.62-.48,1.26-3.01,1.95-2.91l3.49.49,2.22-6.71-5.44-4.04-15.78,7.47,1.04-9.92c.11-1.08,3.43-2.41,4.03-1.6l2.88,3.89,9.26-1.95c.38-.08,2.01-1.34,1.74-1.61l-1.77-1.71-1.79-1.72c-.58-.56-.71-2.87.08-3.05,5.07-1.11,5.67,4.55,8.76,4.09,4.46-.67,3.71-5.26,6.41-6.58,2.24-1.09,6.9,4.62,9.92-.57,1.6-2.75,5.02-7.08,8.05-7.32l8.28-.66,16.74-47.79c-3.37,3.81-4.49,8.79-6.29,13.7l-7.1,19.37-1.05-.61c3.98-10.71,7.37-22.07,12.09-32.97l11.14-25.73-2.54-.35,3.77-13.06c-4.76,7.35-9.24,16.25-12.9,24.56l-1.1,1.82c-.17.29-.47.17-.6-.18l-1-2.79-8.85,17.86-5.83,13.51-1.05-.74,7.94-19.81,14.98-38.91,5.43-13.39-4.02.58c-.8.12-.3-2.6-.14-3.43l-3.58.58,7.01-6.6c6.82-6.43,9.89-14.43,13.27-22.94l13.09-32.93,11.13-29.8,13.19-33.92-13.52,3.18-8.88,4.48c-1.6-1.98-4.4-3.39-6.17-2.49l-18.82,9.59c-3.48,1.77-5.87,4.61-9.45,2.08l3.68-4.81,8.07-3.77,2.43-1.42c.48-.28-1.09-1.58-2.03-2.4,1.43-1.57,3.86-2.67,6.76-3.4l5.05-5.41c-4.87-.3-7.34-.58-10.02-2.82l6.44-4.33-24.74-2c-2.67-.22-4.16-.3-7.02.63-1.85.61-5.4-1.76-6.89-3.63l14.7-.65-12.31-2.79c-15.44-3.5-30.56-6.29-46.21-8.63l-12.18-2.83,26.58,2.1-3.87-4.62c4.21-.72,6.45-.44,10.52,1.17l-6.32,1.9c2.96.48,7.5.65,10.6-.33,4.43-1.4,7.01-1.04,11.25-.17,5.69,1.17,11.88,1.25,18.06,1.27l-1.49-2.79,8.97,1.49,7.9.09-1.27-3.84c-.29-.87-2.44-1.1-4.07-1.12-1.41-.02-3.71-2.38-4.96-2.98l-20.87-10.01,8.85.56,8.91,1.85,7.64.82c-6.6-3.62-12.97-6.02-19.99-9.02l-32.15-13.74-23.84-10.41c-5.82-2.54-11.29-5.7-17.28-9.57l89.12,29.89,35.26,11.95.87-1.39-11.49-6.28,9.67,1.9,9.36,2.66c6.47,1.84,11.82.52,18.73-.07l11.02-.95c-1.19-3.11-2.82-5.31-5.17-8.07l2.16-3.07c-9.1-7.05-20.41-4.93-22.2-18.65l-6.7-4.99,7.77,2.99,6.16-.85-.87-3.76,8.85,8.38,7.88,8.54,3.11-2.91c1.05,1.96,2.48,3.6,3.93,4.06l4.82,1.55c-1.87-3.28-1.57-7.45.61-10.16l-.7-4.91,2.45,3.1c9.39-2.47,20.19,3.69,20.93,13.97.12,1.73.19,3.41.83,4.24s3.1,2.21,3.98,1.63l3.16-2.08c1.59-1.04,2.78,5.41,8.03,4.68,1.4-.19,3.14-1.77,4.55-3.06,2.89-2.66,7.26-1.04,9.25,1.85l16.79,1.77c1.9.2,4.48,1.09,6.29,1.82l29.14,5.04c.99-1.48,3.65-3.16,4.8-2.35,2.41,1.7,6.14,3.96,7.87,4.52,2.92-2.38,4.51-3.48,7.17-4.65l2.1-.92s12.15,6.55,6.29,14.25c2.49,2.61,6.52,5.74,9.69,6.85l6.58-1.3c2.08-.41,4.7-3.45,7.77-5.24l-5.26,6.46c8.9,8.88-8.99,14.08,6.88,20.24l-5.18,5.66-3.27,9.26c2.35,4.26.79,7.32-2.97,9.56l-1.58.94c-.27.16-.19-.9-.18-1.22l.03-2.18-19.93,23.78c-2.93,3.49-4.82,8.16-9.01,10.93l-18.34,12.13,3.94-5.91-41.6,27.11c14.72,2.27,27.21,6.51,38.74,14.16l12.44,8.26c6.78-.42,5,7.11,13.12,7.54l3.29,8.79,1.9,5.01c.9,2.36-5.44,4.23-6.25,7.39-2.35,9.09-6.19,18.98-13.3,25.26-1.69,1.49-2.46,2.71-4.06,4.31l-12.85,12.82.19,3.44-23.68,18.25-7.97,6.06-8.88,6.13c-2.69,1.86-4.78,3.88-8.27,4.03,4.26-3.92,8.19-5.89,11.47-10.69l-17.99,12.83.38.58,4.18.81c-5.48,3.63-8.42,6.31-14.33,7.81l9.63-7.76-.79-.92ZM224.62,152.82l9.3-1.42c-7.64-.73-14.56-.22-22.2,1.09,3.95.55,8.84.96,12.9.33ZM227.64,187.42c-7.85-.91-15.4.36-22.66,2.38,8.47-.04,15.32-.95,22.66-2.38ZM256.56,240.77l14.76-10.5-24.79,10.75,26.63-16.83,6.34-4.32c10.46-5.57,19.73-10.95,28.98-18.84-15.06-11.05-43.73-11.01-62.62-9.33l-13.99,1.24-2.63,8.05c1.53,6.7-.49,14.58-2.28,14.43l-4.12-.35-13.63,33.15-9.08,23.83,33.57-17.3,22.87-13.98ZM239.11,356.95c2.61-3.22,5.26-4.74,8.52-6.21l10.04-4.53c8.02-3.62,14.44-9.06,21.36-15.37-4.57-9.09-24.1-14.93-35.35-16.65l-20.54-3.13c-2.17,2.25-4.88,2.87-8.1,3.29-4.56.59-8.07.74-10.59-4.32l-9.79.66-10.15,1.81-21.73,54.67,2.33.52-6.89,14.84-5,10.13-10.13,22.69c29.13-14.09,55.53-28.58,82.13-45.05-12.04,2.22-19.9,11.14-31.91,13.67l45.79-27.02ZM114.34,429.78l12.58-5.76,5.85-13.89,8.03-22.38-11,18.18-10.42,20.59.11-6.94-5.15,10.21ZM226.76,417.44l1.61.66,14.56-9.39-.85-1.04-15.32,9.77Z"/>
  <path d="M538.97,419.66l-10.41,24.57c13.12-49.72,27.6-97.58,43.25-146.02l22.05-68.25c-3.11.47-5.64,2.51-7.08,5.04l-4.54,1.65,5.92.7-14.54,5.64,9.61,1.51-26.31,5.58-15.01,45.09-17.83,55.87-6.38,23.2c-.38,1.36.6,4.17,1.67,4.9l9.12-8.43,8.58-7.91-9.69,16.8c-2.22,3.85-5.26,6.11-4.22,10.89l-7.74,12.34c-1.7,2.71-1.17,8.78-2.56,11.26l-6.16,11.01c.72,1,2.33,2.64,1.76,3.23l-3.24,3.3-4.41,9.98c.64-8.24,3.91-13.94,3.92-22.23-4.86,9.44-8.06,18.59-10.99,28.58l-8.26,28.12-1.55-.07,7.07-27.35-1.15-.81-6.05,16.64c-.14.39-1.24,1.58-1.37,1.32l-.96-1.86-16.69,46.3-1.1-.76,13.34-53.95-.79-.75-8.85,29.42-.89-.68,11.51-41.26,7.17-28.73-.94-.81-7.46,21.21c-2.43,6.9-3.05,14.03-7,20.27l10.73-44.38.62-10.3,5.5-15.85,13.07-42.01,28.32-86.73-21.45,4.39c-2.35.48-8.14-2.59-9.49,1.12l-3.19,8.78-11.22,33.78-22.03,71.89c-.51,1.66.53,4.47,1.73,4.03l11.14-9.39,7.84-8.51.76.73-7.96,11.37-6.35,10.84c-2.14,3.66-3.29,6.33-4.58,10.81l-6.02,10.25c-.46,4.96-1.12,7.63-4.05,11.44l-3.69,7.95-4.6,7.99,3.18-16.92c-3.45,3.95-4.56,7.67-5.45,12.44-2.06,11-5.33,21.7-10.16,31.58.22-9.96,7.34-16.71,6.15-27.22l-8.99,19.75-1.47-2.14-13.38,35.98c-1.33,3.57-1.85,7.21-3.76,10.36l4.85-21.58c2.07-9.21,5.2-17.75,6.07-26.71l-4.14,9.32c2.8-15.12,8.96-28.05,10-43.68l-9.41,26.97-.67-1.12,7.85-32.78c-1.35-2.28-2.05-5.45-1.17-7.92l4.08-11.5,4.42-10.46c10.84-37.65,22.18-74.42,35.03-111.82l-27.17,5.1,4.69-3.9-10.78-2.74c-6.88-.74-13.32,2.18-18.95,1.26l16.77-4.42-2.63-1.92c3.68-.94,9.65-1.95,11.73-4.19l5.32-5.74-2.48-4.01,12.7-1.8,19.43-2.99,19.43-57.26c.71,6.14-2.92,10.09-2.5,16.03l4.8-11.98,5.95-8.24,3.68-2.22,9.79-15.97-2.73,10.08,5.8-6.23c5.54-5.95,6.73-14.09,11.51-20.87l-13.84,44.69-.54,1.67c-.12.38,1.23.25,2.02.23l-15.29,46.23,19.24-2.54,12.14-1.05,14.82-43.15,1,.55-4.88,17,.76.68,4.26-11.15c2.3-6,5.93-11.91,11.16-15.7,2.44-1.77,3.82-4.15,5.28-7.44l1.6,2.12,3.25-7.21.67.66-1.2,6.16c6.42-7.36,8.88-15.34,13.23-23.77l-10.3,34-2.02,11.06c-2,10.94-6.57,20.78-9.45,31.48l23.95-3.69-2.89,3.23,10.56-2.09,18.07-56.82c.51-1.6,2.03-3.69,3.24-4.91l15.35-46.99,2.69,8.07,5.36-8.79c.51,6.37-2.12,10.45-3.53,16.92,1.6-1.89,2.85-4.11,3.76-6.46l9.2-23.77,8.3-22.93c1.19-3.28-.31-8.52,5.39-10.22l-3.97,15.26,4.01-6.43c-1.04,4.47-2.13,7.01-2.33,12.16L694.28,0l.89.63-11.27,42.45-15.22,50.8-15.01,49.55c8.05-12.5,8.79-27.3,15.67-40.97l-8.62,31.49c-.91,3.31-1.29,5.49-.33,8.85l-4.75,9.51-2.17,9.16c-.32,1.34.39,4.19-.3,5.27s-3.14,2.4-4.64,3.23l-7.43,22.19-9.38,27.12-1.54,5.86-3.91,11.41-7.51,23.87c-1.06,3.37-.85,4.56-2.66,7.75-2.1,3.69-4.12,9.03-5.45,13.27l-4.03,12.89-6.3,19.93-14.79,48.04,8.82-5.85,6.27-4.82c2.8-11.86,6.08-23.62,12.98-33.81,6.06-8.96,12.81-17.4,19.86-24.9l-.81-4.6-13.73,3.06c2.23-4.03,5.81-5.8,10.39-6.1l6.74-5.21c13.54.58,19.83-10.54,33.15-11.7l-2.53,2.97c7.52-1.86,13.73-2.86,21.4-2.47l.29-1.61c.07-.38,1.69.43,2.13.41l10.4-.41c.48-.02,2.37-.21,2.12.18l-1.12,1.77-1.78,3.09c-1.2,2.08,10.82,4.5,12.29,15.2,3.96.27,7.4,1.45,10.09,4.56-5.68,3.22-9.19,6.9-11.47,12.04-4.63.3-6.87,9.25-13.54,14.13-3.42,2.51-5.07,3.96-7.66,7.01-4.16,4.9-10.84,8.87-16.07,12.6-2.88,6.52-18.01,12.47-27.11,15.9l-15.39,5.79c-.84,4.06-.66,9.68,1.92,13.17,6.39,8.62,24.28,2.83,36.06-2.11l8.67-3.63,21.44-11.51,4.97-4.06c.95-.78,1.49-3.66,2.26-5.08,1.92-3.52,6.57-6.21,9.44-8.92,1.84-1.73,2.88-2.89,5.53-4.47l-4.91,11.3,9.24-4.09-7.47,10.19c-2.52.34-4.08,1.01-5.9,2.24-5.85,3.95-11.49,7.69-16.46,12.57l-8,7.84,5.27-.94-6.03,4.76,5.09-.39c-15.97,13.24-35.63,28.27-55.81,31.45,7.88,4.54,16.36,1.94,25.23,6.27l-8.9,3.94c-.95.42-4.18-.02-4.68-.81-.6-.95-.67-1.79-.98-4.57l-11.2-.48-6.03-.21c.56,2.97.32,5.06-1.44,6.03-2.11,1.16-4.95.31-5.53-2.11-1.37-5.73-6.88-8.9-10.97-11.89l-3.32-2.43c-.77-.56-2.45.16-3.7.65l-5.48,2.14-1.69-7.55c-.77-3.46.51-6.1.55-8.98l.3-24.43c-4.83-.11-9.47.59-14.13,2.38l-3.56,11.72c-.43,1.43-.02,3.95.62,6.55l6.21-7.18-.93,5.41,9.31-9.55c-3.54,10.91-12.8,19.92-15.11,27.56l-9.76,32.38c5.17,2.64,7.65.23,11.61-2.78l-2.98,7.21c2.72,7.37-5.29,10.93-2.51,18.04-1.67,4.02-2.32,8.16-1.89,12.69l-1.97-1.31c-.54-.36-1.7.12-2.6.43l-4.66,1.61-4.36,13.65c-5.31,12.47-9.34,25.38-12.21,38.36,1.66,1.06,3,2.1,3.22,3.02.26,1.11-2.58,2.53-4.43,2.71l-5.2,11.44.67-7.19c.52-5.65,2.9-10.21,4.62-15.61l3.86-12.09c.57-1.8-2.22-5.44,1.95-6.65l-.04-6.45c-.03-4.53.86-7.94,2.01-13.14l-5.37,10.61-6.23,14.02.23,4.28-3.03,14.07c-6.08,6.27-4.11,12.37-8.49,17.16l.61-9.35-11.4,31.63-19.22,58.83-6.43,15.62-11.37,39.64-.99-.67,7.42-30.14,19.89-83.08,6.19-30.82c.46-2.31,1.61-4.01,1.03-6.74-5.19,8.4-5.09,19.16-8.9,26.81-6.58,13.21-7.53,27.09-13.16,41.03l11.44-52.69,3.24-8.13-3.22-1.43c-.59-.26.04-2.47.38-3.03l4.56-7.71c-1.71-1.38-2.97-2.4-3.64-3.29-.78-1.04.88-4.51,2.19-5.08,3.08-1.34,4.57-3.84,5.49-7.25l13.44-49.66,7.85-31.63ZM594.32,314.34l1.11.7,7.75-23.79-1.34.21-7.51,22.88ZM686.42,299c-1.58-2.7-5.6-4.16-8.56-4.02-10.93.5-18.52,7.07-24.93,15.13-5.85,7.35-10.56,14.95-14.25,24.33,19.71-8.04,37.08-16.6,47.74-35.44Z"/>
  <path d="M955.82,458.98c-3.9,1.92-8.02,3.37-10.4,8.08l18.25-10.33,3.56,3.5-13.95,6.41c-4.03,1.85-7.21,3.73-11.52,3.08l2.1-1.68c.47-.38-.8-2.38-1.5-2.02l-19.39,9.99c-3.75,1.93-5.37,2.79-8.87,4.52l-18.46,9.13-23.08,11.42,15.96-11.39,7.72-5.46,6.79-7.82,6.99-5.17c2.74-2.03,4.8-2.4,7.54-.47l23.58-15.58-6.77.58,6.68-5.54c.71-.59,2.43-2.7,3.17-2.16l3.67,2.73,12.42-8.78-12.44,3.85,5.71-5.15,41.5-25.44,21.03-12.68-6.84-1.11-10.01-6.65c-2.43,1.34-5.47-1.39-7.54-3.28l-4.87,3.94,3.27-9.64-.57-8.8.62-17.25c-7.38,5.48-14.12,10.68-19.22,17.1l11.03-5.91-21.4,17.77c-11.73,9.74-25.21,16.04-39.92,18.79l10.48,3.25c4.69-.9,8.48-1.24,10.92,3.22l-7.78.64c-2.06-1.66-4.8-3.09-7.21-2.99l-10.59.47-2.86,7.12-5.45-7.55c-.95-1.31-3.95-3.59-5.32-4.56l-9.13-6.43-7.9-.16-3.83,3.71c.55-3.31.64-5.15-.77-7.46,2.25-4.52,3.74-9.54,2.67-14.64,1.22-5.93,1.52-10.93,1.33-16.9-8.12-1.1-13.28,3.78-19.26,3.75l16.39-9.67c-.08-2.85.71-4.71,4.33-6.08l3.67-12.85c3.15-11.02,8.63-21.26,15.67-30.15l12.92-16.31-5.01.94,2.25-4.42c-12.97,1.27-21.23,12.52-27.56,9.63-8.27,4.04-17.3,8.02-24.05,14.63l-9.58,9.38-15.21,41.81-4.14,15.31c-.69,2.56.48,5.93-.87,8.42l-8.56,15.75-8.77,21.61-.81-.67,5.62-19.03.94-8.78-11.58,23.74-1.25-3.42-22.14,53.27c-.1-2.96,1.11-6.26,2.01-9.58l10.79-39.74-8.19,19.49c4.71-17.99,11.95-33.69,12.73-52.9l-8.23,17.62-.85-.64,6.33-20.21-1.91-5.12,7.73-14.27c5.07-9.35,7.09-20.14,10.47-30.41l15.85-48.27c.25-.76.36-2.23.31-2.91-.06-.85-2.47-2.36-3.4-1.96l-15.43,6.69,12.29-11c-.72-.71-1.58-1.6-1.68-1.56-.12.04.71-.59,1.06-.89l5.58-4.75-6.14-.34,13.14-6.55,5.44-9.11,1.93,4.45,16.77-9.42c2.8-1.57,4.56-6.32,6.96-9.05,1.31,7.1-2.33,15.1-.16,14.9l2.92-.26c.37.05,1.21,3.27.8,4.45l-8.24,23.28,22.03-15.79c8.03-5.75,15.84-10.63,25.37-14.07l-7.93,7.03,12.73-5.73-3.86-.84c6.85-3.62,12.61-8.33,21.03-10.35l-15.69,9.21.67.85,17.46-8.23,28.12-13.21c-10.73,7.25-21.08,13.13-30.63,21.89l-10.88,8c6.17,1.12,9.77-5.53,14.7-3.37l-20,13.07-5.56,5.27c-2.11,2-4.04,4.01-4.65,5.79,6.13,2.94,8.76,2.18,13.34.05l18.45-8.6c4.37-2.04,8.15-3.91,13.48-4.26l-4.83,3.4c8.27-2.07,15.03-3.16,22.64-2.96l11.26-3.2.07,7.7c9.51,4.19,9.76,10.6,14.97,13.2l-.2,2.51,2.58,3.18c.22,2.58-3.16,6.92-5.02,9.11l-4.71,5.56-12.65,13.44-9.33,8.51-11.84,9.16-8.04,5.96c-6.4,4.75-14.85,6.73-22.41,9.44l-11.17,4.01c-1.22,4.98-.54,11.46,3.81,14.6,6.36,4.6,14.69,3.38,21.64,1.05l11.28-3.78,8.97-4.03,25.12-13.51-6.79-1.78c.63-.81,2.86-2.77,3.88-3.12,2.44.6,5.87,1.19,7.98.69,2.79-15.9,8.09-30.7,18.49-42.95,1.35-.89,2.72-2.06,3.73-4.11,2.98-6.09,7.59-10.87,12.06-15.4l-5.44-2.88c-4.12,1.47-6.53,2.15-10.33,2.17l8.01-6.91,6.45-1.15,13.06-4.42c4.84-1.64,10.91-5.76,13.39-9.44l6.51.9c.46-.66-1.07,1.53-1.63,2.3l14.64-3.8c2.92-.76,6.66-6.55,9.49-7.02,2.02,1.23,5.6,3.31,7.2,2.62l7.35-3.18-3.53,4.5-2.22,7.26,11.47,8.28,2.7,7.5c4.23-1.19,8.05,1.21,9.36,4.43-5.22,3.56-8.21,7.1-11.01,11.76-1.46,1.07-3.46,2.85-4.46,4.39-2.23,3.41-4.76,5-7.71,7.63l-6.31,5.63c-1.14,1.02-2.83,4.01-3.77,5.3l-22.53,17.25c-6.85,5.25-15.6,7.15-23.6,10.36l-11.29,4.53c-1.21,5.56-.38,12.4,5.14,14.72,5.31,2.23,12.29,2.18,18.09.84l18.44-4.26c.3-5.86,5.18-1.13,17.66-4.59l38.29-10.63c3.02-.84,5.24-2.81,9.24-.85l-28.83,10.12c5.89-.25,11.53-2.69,17.68-4.21l40.18-9.9,37.67-10.21,1.85-.02c.44,0-.94,1.35-1.43,1.51l-12.49,4.1c-2.11,7.81-13.1,10.9-14.35,8.61-.46-.83.28-2.21,1.02-4.09l-37.68,15.65-6.4,3.74-7.75,3.38c-.74-.3.66.26,2.48.99.16.06.33.38-.04.45s-2.64.21-2.99.39l-13.92,7.45c-1.97,1.06-3.5,4.36-6.55,4.61-1.41.12-4.06,2.27-4.43,3.26l4.46.63c1.02.14,1.49,2.7,2.14,4.12,4.41-.94,8.28-3.6,13.25-1.47l-15.57,5.23-8.38,3.92c-2.65,1.24-5.83,1.34-8.21,3.11l-2.68,2c-.58.43-2.39-1.58-3.19-1.61-3.43-.13-8.52,3.03-11.86,4.91l-9.19,5.18c2.09,8.73-8.44,15.53-16.21,14.74-1.23-1.19-2.54-2.29-3.38-1.97l-2.36.89c-.35.13-.28-1.03.05-1.22l2.44-1.43-1.18-1.5-35.16,18.03c2.35,1.56,3.49,1.34,7.24.79.14-.59-.55,2.29-.83,3.43-.24.99-2.77-.36-3.66-.88-3.03,1.87-6.48,3.12-9.97,1.91l-6.04,9.01.15-4.19-5.85,1.97c3.52-5.78,10.37-6.02,11.21-10.28l-34.81,17.11ZM1054.49,319.4c8.67-7.78,18.16-13.3,22.88-23.83,1.98-4.42-15.07-10.52-30.71,8.41-6.89,8.33-12.84,16.61-16.89,27.06l24.72-11.63ZM943.96,326.6l12.26-8.2c5.95-4.75,11.61-10.33,15.09-17.55-1-2.82-5.46-4.3-8.41-4.02-19.54,1.85-30.75,21.73-38.91,39.27l19.97-9.5Z"/>
  <path d="M723.36,455.41l-9.38,15.67c-1.76,1.6-3.54,3.41-4.58,5.64l-4.58,9.84c-1.18,2.54-1.31,4.38-2.66,6.62l-5.51,9.14,13.47-40.05,17.98-53.86c.75-2.23.78-4.86.32-7.79l-14.59,28.6,8.77-26.47,11.65-34.12c.33-.33,1.36-1.55,1.55-1.31l1.64,1.99,19.2-50.18c-6.04,4.88-4.74,12.31-9.96,16.07l2.8-10.13-1.61-2.4c2.98-2.34,4.3-4.06,5.5-7.28l38.62-103.45-38.08,8.75,7.35,1.85c-2.53,1.51-4.36,1.74-7.63,2.07l-9.6,2.81-18.55,2.94,4.71-3.85-19.45,4.36-24.15,5.75,18.52-10.11-2.69-.49c-.38-.07-.93-1.27-.58-1.43l1.97-.94,11-3.17c-1.09-.72-1.89-1.08-1.51-1.37l1.56-1.19,11.52-7.4c.84-.54,3.06-2.36,2.37-2.97s-2.55-1.1-3.59-1.18l-10.07-.74c-2.15.39-4.58,1.53-7.06.49l11.27-3.88c-7.4-2.66-15.46.17-15.17-1.57l.39-2.33-9.72-1.54,4.01-3.42-8.83-1.47-12.19-.7-12.05-.69,56.58-10.76-6.12-2.65c1.84-5.42,6.23-5.58,10.47-5.86l9.12-.61c6.48-.43,13.1-1.52,19.67-3.56,2.89-.9,4.24-8.14,9.12-5.21-2.71,1.72-4.23,2.72-6.24,5.27l12.15-1.62,6.14-.95,18.39-3.2,8.3-2.33,7.24-2.44,11.45-1.36c4.46-.53,7.51-1.62,11.81-2.37l41.75-7.29,23.67-4.26.62,1.47-12.11,3.04-14.39,3.65c6.04,1.13,10.11-1.39,15.57-2.42,62.66-11.77,124.16-25.94,185.51-43.66-8.24,5.77-16.92,8.11-25.7,11.53l-41.77,16.26-17.42,6.69-18.02,6.87c8.43-.68,15.36-2.88,23.39-4.91l4.39,1.08.84-.46-2.81-1.17,10.17-3.21-3.53,3.68,4.96-.51-.1,1.41-25.61,7.68-21.76,7.16,5.4.04.15,1.33-28.47,8.02c-2.34.66-3.47,1.25-4.09,4.01l-16.55,5.82,21.33-1.99-1.42,1.49c-.23.24-.96.89-.63.98.5.14,2.34.57,2.96.53l16.52-.91,19.57-3.05.56.75-10.65,2.49c-3.31,4.39-6.37-.61-13.69,2.26l2.35,1.32c.35.2-.22,1.64-.59,1.47l-1.87-.84c-.84-.38-3.25-1.18-4.26-.89l-13.15,3.73-6.21,3.51c-.48.27-1.45-1.67-1.58-2.54l-21.63,6.4-30.82,7.72,3.08-3.53-34.96,7.45c-2.63,4.97-2.69,10.18-4.67,15.48l-3.74,10.03-3.21,2.71-19.48,49.66,3.18,1.76-4.91,2.71-9.29,23.23-4.09,10.8-1.62-2.55-6.81,21.59-11.67,31.3c-1.04,2.79-1.78,6.05-1.63,8.39l8.29-1.3c-6.01,11.08-12.31,20.87-16.17,32.21l-4.16,9.77-10.31,22.75-2.44,4.75,1.25-8.85-7.45,15.56-12.93,30.03-20.34,50.11-.85-.78c1.77-5,3.9-9.95,4.62-15.98l-26.44,63.58c-.77,1.85-1.61,3.2-2.82,4.26.35-2.64.52-5.01,1.19-6.96l29.71-85.91-.72-.64-18.79,46.31,19.68-57.7,2.51-7.64,4.61-14.4ZM753.82,173.21l48.52-8.26.42-1.22-40.37,6.8c-2.68.45-5.8,1.52-8.57,2.68ZM823.65,199.46l27.21-5.86-.63-.86-19,3.6-17.56,4.18c3.55.86,6.35-.28,9.98-1.06ZM784.42,330.34l1.02.73,8.82-22.34-1.15-.8-8.69,22.41Z"/>
  <path d="M391.89,418.47l-.32-18.44-2.61-3.52-1.87,7.87c-2.29-10.27-.31-20.41.87-31.61-9.76,12.62-20.57,23.19-33.3,32.12l4.83-.07c-9.45,9.63-15.66,3.12-17.71,5.04l-6.78,6.35c-.61.57-3.9-1.05-3.6-1.84l1.66-4.47c-1.64-1.64-6.48-4.72-9.07-5.73l-6.61,2.69-9.03,10.14-.81-.91,7.18-9.19c.74-.94-1.57-3.82-2.32-4.19l.28-6.99c.08-2.09,3.15-5.27,4.76-7,.25-17.06,7.46-38.02,16.08-53.12,8.81-15.43,20.59-28.58,33.78-40.06l-5.1.08c8.44-6.58,17.04-12.03,26.42-15.86l-1.78,3.41c13.34-4.9,21.09-6.31,30.67,5.14l4.5-5.44c3.18,1.53,7.67,1.63,9.66-2.03-1.15,4.79-1.52,9.09-.9,13.05,2.71-1.71,2.67-1.81,5.02-2.69l-6.67,18.34c-1.88,1.09-2.18,3.28-1.13,5.42-6.85,19.3-12.18,38.51-15.8,58.54l.44,3.12c.1.67,3.06-.08,3.7-.69l12.69-11.92-7.51,12.72c-2.27,3.84-4.31,7.22-5.47,11.47-1.44,5.26-6.41,9.37-10.7,13.64l-4.08,12.37-.95-4.56-4.18,24.42-1.06-9.65-.9-15.82-2.31,9.86ZM394.68,332.1l9.17-24.87c-4.61-6.15-15.41.81-22.38,7.5-14.11,13.55-25.53,29.46-31.85,48.07-1.39,4.08-2.48,9.22-.18,12.84,16.49-2.17,38.01-27.97,45.24-43.54Z"/>
  <path d="M1136.26,316.04l-11.36,6.95,12.79-13.04,5.39-5-.25-2.77,2.44.48c.67.13,1.3-1.19,2.28-2.83.46-1.21.15-1.67-2.67-1.1l9.82-9.75c1.38-1.37,5.23-2.88,6.82-3.86l8.26-5.1,22.95-19.33c-2.68,4.86-6.59,8.15-10.16,12.11l-12.36,13.73c-1.28,16.44-14.46,16.48-19.38,19.71l-12.83,8.4.51,2.13c.1.41-1.55-.37-2.25-.73Z"/>
  <path d="M62.51,443.85c-.3.87-3.3,2.6-3.94,1.94l-3.31-3.39c-2.46,1.03-6.22,1.63-8.84.58-2.88-1.16-4.91-4.63-4.63-7.61l.5-5.23,6.29,1.07c4.77.82,7.56,3.57,7.5,8.63l6.44,4.02Z"/>
  <path d="M65.05,364.03c-2.96,4.95-9.73,8.4-15.5,8.19.82-6.66,7.34-11.65,13.24-13.22l6.27-1.67-4,6.7Z"/>
  <path d="M241.52,474.72c-2.67,5.74-6.21,9.65-10.85,8.79-2.69-.5.07-11.01,8.55-14.05,1.36-.49,3.06,3.64,2.3,5.26Z"/>
  <path d="M14.33,463.63c-.49,5.19-11.11,8.6-13.79,3.46-.38-4.99,11.36-8.66,13.79-3.46Z"/>
  <path d="M892.46,463.3l-7.83.7c-1.42.13-4.31-1.29-4.99-2.51s-.64-4.09-.24-6.17l8.26,1.19,4.81,6.79Z"/>
  <path d="M384.15,137.87c-2.1,6.69-7.84,14.39-12.88,12.02,1.72-6.1,5.6-11.73,12.88-12.02Z"/>
  <path d="M1093.47,236.76c-.38,3.59-3.59,6.98-7.13,8.29-1.32-2.25-2.39-4.45-1.99-5.84,1.2-4.18,4.9-6.69,7.54-5.95.71.2,1.7,2.4,1.58,3.5Z"/>
  <path d="M806.51,126.08c-.01,3.07-5.5,7.44-8.48,7.95-.9.16-2.09-3.53-1.44-4.2l6.87-7.09c.32-.33,3.06-.23,3.06.23v3.1Z"/>
  <path d="M190.22,92.49c-1.35,1.19-4.89-1.41-5.72-2.93-1.08-1.99-1.4-6.39,1.69-7.23,1.71-.47,4.36,1.69,4.91,3.14.68,1.79,1.24,5.15-.88,7.02Z"/>
  <path d="M73.66,244.7c-1.82,5.55-10.37,11.75-14.41,10.4-2.29-.76,5.84-8,14.41-10.4Z"/>
  <path d="M1121.19,391.29c-.36-.42-.38-3.03-.91-3.01l-3.34.11,8.68-3.37c.83-.32,3.77.1,3.93.92s.11,2.92-.16,3.73c-1.02,2.98-6.19,3.96-8.2,1.63Z"/>
  <path d="M137.41,519.36l-7.01,6.29c-1.36-1.94-2.16-5.29-1.23-7.6s4.7-3.41,7.41-2.65l.83,3.96Z"/>
  <path d="M1074.76,438.73c.64,1.39-.68,4.46-1.62,5.32-1.1,1-4.82,1.86-6.09.8-2.03-1.69-.21-4.84.99-6.18,1.62-1.8,5.4-2.79,6.72.06Z"/>
  <path d="M747.53,104.6c2.65-1.34-2.34,10.08-11.54,11.27.81-5.21,4.88-7.89,9.45-10.21l2.09-1.06Z"/>
  <path d="M82.12,415.93c-2.17-.5-3.48-3.5-3.25-5.12.21-1.49,2.33-4.5,3.89-4.41,2.16.11,3.91,3.31,3.74,4.99s-2.65,4.94-4.39,4.54Z"/>
  <path d="M78.99,321.75c-3.66,2.2-6.76,3.67-10.94,2.79,2-5.94,7.02-4.44,10.96-5.46,2.2-.57,3.59-.86,5.84-.6l-5.86,3.27Z"/>
  <path d="M693.5,147.73l-8.81-1.07c1.2-2.47,3.93-5.52,6.07-6.1.93-.25,4.41.2,4.19,1.14l-1.44,6.03Z"/>
  <path d="M590.06,425.59c-1.38-.16-3.05-4.19-2.09-5.15l4.98-4.95c1.43,2.25,2.67,4.76,2.26,6.28-.51,1.89-3.37,4.01-5.16,3.81Z"/>
  <path d="M854.8,480.96c-1.6,3.87-7.73,6.68-11.71,4.16-.02-4.04,7.33-7.02,11.71-4.16Z"/>
  <path d="M365.49,150.01c-.79,1.3-2.07,3.12-2.85,3.67-.94.67-3.66-.49-3.97-1.61-.94-3.35,2.95-7.76,5.59-7.06,1.14.3,1.95,3.81,1.23,5Z"/>
  <path d="M1023.97,449.2c-.85,2.91-4.5,8.7-10.09,7.34l6.72-8.63c.32-.41,3.52.79,3.37,1.29Z"/>
  <path d="M115.45,533.39c-1.45,2.29-4.14,4.63-6.16,4.27-1.23-1.88.17-5.49,1.98-7.31.69-.69,2.8-1.17,3.69-.81s1.03,3.01.49,3.86Z"/>
  <path d="M171.92,67.71c-1.02-.02-3.09-1.13-4.21-2.11-1.03-.9-1.99-4.73-.75-5.37,3.42-1.25,6.61,3.77,4.97,7.48Z"/>
  <path d="M205.03,453.93c-.45-.96-.3-3.11-.83-3.4l-2.88-1.58,9.79-4.03-2.12,4.51c-.61,1.3-2.7,3.84-3.96,4.5Z"/>
  <path d="M920.45,446.07c-.7-.3-2.15-2.95-1.62-3.46l3.08-3c.96-.93,3.3,1.9,3.34,3.28.05,1.74-2.46,4.18-4.8,3.17Z"/>
  <path d="M1105.6,256.56l-2.09-5.15,5.88-3.42c.66,4.58-.22,6.37-3.78,8.57Z"/>
  <path d="M161.78,477.37c.18.87-.82,3.61-1.7,4.27-1.04.77-4.03,1.06-4.99.35-.8-3.45,3.5-6.03,6.7-4.62Z"/>
  <path d="M1051.08,237.26c-1.06.54-3.21-1.02-3.54-2.13-.43-1.45,1.64-4.75,3.09-4.56,2.98.39,3,5.51.44,6.69Z"/>
  <path d="M185.58,109.98l-2.72,4.66-3.62-.71c-.91-.18-.28-3.26.31-3.98.71-.87,2.06-.68,6.02.03Z"/>
  <path d="M1042.08,465.83l-3.73,4.24c-2.89-1.94-1.98-6.28.55-6.82l2.34-.5c.46-.1,1.17,2.7.84,3.08Z"/>
  <path d="M1148.34,345.24c-4.92,2.13-9.61,3.78-14.66,4.74,4.27-3.7,9.12-5.38,14.66-4.74Z"/>
</svg>